G75*
%MOIN*%
%OFA0B0*%
%FSLAX26Y26*%
%IPPOS*%
%LPD*%
%AMOC8*
5,1,8,0,0,1.08239X$1,22.5*
%
%ADD10C,0.060000*%
%ADD11OC8,0.052000*%
%ADD12C,0.051496*%
%ADD13C,0.030000*%
%ADD14C,0.056000*%
D10*
X01770000Y00195000D02*
X01830000Y00195000D01*
X01830000Y00305000D02*
X01770000Y00305000D01*
X01770000Y00895000D02*
X01830000Y00895000D01*
X01830000Y01005000D02*
X01770000Y01005000D01*
X01700000Y02670000D02*
X01700000Y02730000D01*
X01600000Y02730000D02*
X01600000Y02670000D01*
X01500000Y02670000D02*
X01500000Y02730000D01*
D11*
X01100000Y02700000D03*
X00800000Y02700000D03*
X00600000Y02700000D03*
X00300000Y02700000D03*
D12*
X00424252Y02400000D02*
X00475748Y02400000D01*
X00475748Y02300000D02*
X00424252Y02300000D01*
X00424252Y02200000D02*
X00475748Y02200000D01*
X00475748Y02100000D02*
X00424252Y02100000D01*
X00424252Y02000000D02*
X00475748Y02000000D01*
X00475748Y01900000D02*
X00424252Y01900000D01*
X00424252Y01800000D02*
X00475748Y01800000D01*
X00475748Y01700000D02*
X00424252Y01700000D01*
X00424252Y01600000D02*
X00475748Y01600000D01*
X00475748Y01500000D02*
X00424252Y01500000D01*
X00375748Y01100000D02*
X00324252Y01100000D01*
X00324252Y01000000D02*
X00375748Y01000000D01*
X00375748Y00900000D02*
X00324252Y00900000D01*
X00324252Y00800000D02*
X00375748Y00800000D01*
X00375748Y00700000D02*
X00324252Y00700000D01*
X00324252Y00600000D02*
X00375748Y00600000D01*
X00375748Y00500000D02*
X00324252Y00500000D01*
X00324252Y00400000D02*
X00375748Y00400000D01*
X00375748Y00300000D02*
X00324252Y00300000D01*
X00324252Y00200000D02*
X00375748Y00200000D01*
X01224252Y00200000D02*
X01275748Y00200000D01*
X01275748Y00300000D02*
X01224252Y00300000D01*
X01224252Y00400000D02*
X01275748Y00400000D01*
X01275748Y00500000D02*
X01224252Y00500000D01*
X01224252Y00600000D02*
X01275748Y00600000D01*
X01275748Y00700000D02*
X01224252Y00700000D01*
X01224252Y00800000D02*
X01275748Y00800000D01*
X01275748Y00900000D02*
X01224252Y00900000D01*
X01224252Y01000000D02*
X01275748Y01000000D01*
X01275748Y01100000D02*
X01224252Y01100000D01*
X01125748Y01500000D02*
X01074252Y01500000D01*
X01074252Y01600000D02*
X01125748Y01600000D01*
X01125748Y01700000D02*
X01074252Y01700000D01*
X01074252Y01800000D02*
X01125748Y01800000D01*
X01125748Y01900000D02*
X01074252Y01900000D01*
X01074252Y02000000D02*
X01125748Y02000000D01*
X01125748Y02100000D02*
X01074252Y02100000D01*
X01074252Y02200000D02*
X01125748Y02200000D01*
X01125748Y02300000D02*
X01074252Y02300000D01*
X01074252Y02400000D02*
X01125748Y02400000D01*
X01524252Y02400000D02*
X01575748Y02400000D01*
X01575748Y02300000D02*
X01524252Y02300000D01*
X01524252Y02200000D02*
X01575748Y02200000D01*
X01575748Y02100000D02*
X01524252Y02100000D01*
X01524252Y02000000D02*
X01575748Y02000000D01*
X01575748Y01900000D02*
X01524252Y01900000D01*
X01524252Y01800000D02*
X01575748Y01800000D01*
X01575748Y01700000D02*
X01524252Y01700000D01*
X01524252Y01600000D02*
X01575748Y01600000D01*
X01575748Y01500000D02*
X01524252Y01500000D01*
D13*
X00055000Y02944606D02*
X00055000Y00005000D01*
X02132008Y00005000D01*
X02132008Y02944606D01*
X00055000Y02944606D01*
X00055000Y02939855D02*
X02132008Y02939855D01*
X02132008Y02909857D02*
X00055000Y02909857D01*
X00055000Y02879858D02*
X02132008Y02879858D01*
X02132008Y02849860D02*
X01420851Y02849860D01*
X01403323Y02867388D02*
X01384946Y02875000D01*
X00315054Y02875000D01*
X00296677Y02867388D01*
X00282612Y02853323D01*
X00182612Y02753323D01*
X00175000Y02734946D01*
X00175000Y02390054D01*
X00182612Y02371677D01*
X00196677Y02357612D01*
X00303887Y02250402D01*
X00298226Y02250000D01*
X00290054Y02250000D01*
X00288362Y02249299D01*
X00286535Y02249169D01*
X00279226Y02245515D01*
X00271677Y02242388D01*
X00270382Y02241093D01*
X00213442Y02212623D01*
X00212531Y02213000D01*
X00187468Y02213000D01*
X00164313Y02203409D01*
X00146591Y02185687D01*
X00137000Y02162531D01*
X00137000Y02137468D01*
X00146591Y02114313D01*
X00164313Y02096591D01*
X00187468Y02087000D01*
X00212531Y02087000D01*
X00235687Y02096591D01*
X00253409Y02114313D01*
X00256799Y02122498D01*
X00311803Y02150000D01*
X00388341Y02150000D01*
X00372752Y02134411D01*
X00368031Y02123012D01*
X00126836Y01969525D01*
X00121677Y01967388D01*
X00118525Y01964236D01*
X00114766Y01961843D01*
X00111561Y01957271D01*
X00107612Y01953323D01*
X00105906Y01949205D01*
X00103348Y01945555D01*
X00102137Y01940104D01*
X00100000Y01934946D01*
X00100000Y01930489D01*
X00099033Y01926138D01*
X00100000Y01920638D01*
X00100000Y00265054D01*
X00107612Y00246677D01*
X00121677Y00232612D01*
X00271677Y00082612D01*
X00290054Y00075000D01*
X00396446Y00075000D01*
X00402775Y00074096D01*
X00406303Y00075000D01*
X00409946Y00075000D01*
X00415851Y00077446D01*
X00422043Y00079033D01*
X00424957Y00081218D01*
X00428323Y00082612D01*
X00432843Y00087132D01*
X00724958Y00306218D01*
X00728323Y00307612D01*
X00732842Y00312132D01*
X00737956Y00315967D01*
X00739812Y00319102D01*
X00742388Y00321677D01*
X00744834Y00327583D01*
X00748091Y00333083D01*
X00748606Y00336689D01*
X00750000Y00340054D01*
X00750000Y00346446D01*
X00750000Y00346448D01*
X00750000Y00090054D01*
X00757612Y00071677D01*
X00771677Y00057612D01*
X00790054Y00050000D01*
X01459946Y00050000D01*
X01478323Y00057612D01*
X01492388Y00071677D01*
X01675711Y00255000D01*
X01728076Y00255000D01*
X01733076Y00250000D01*
X01714896Y00231820D01*
X01705000Y00207929D01*
X01705000Y00182071D01*
X01708327Y00174038D01*
X01697289Y00163000D01*
X01687468Y00163000D01*
X01664313Y00153409D01*
X01646591Y00135687D01*
X01637000Y00112531D01*
X01637000Y00087468D01*
X01646591Y00064313D01*
X01664313Y00046591D01*
X01687468Y00037000D01*
X01712531Y00037000D01*
X01735687Y00046591D01*
X01753409Y00064313D01*
X01762873Y00087163D01*
X01805711Y00130000D01*
X01842929Y00130000D01*
X01866820Y00139896D01*
X01885104Y00158180D01*
X01895000Y00182071D01*
X01895000Y00207929D01*
X01885104Y00231820D01*
X01866924Y00250000D01*
X01885104Y00268180D01*
X01895000Y00292071D01*
X01895000Y00317929D01*
X01885104Y00341820D01*
X01866820Y00360104D01*
X01842929Y00370000D01*
X01757071Y00370000D01*
X01733180Y00360104D01*
X01728076Y00355000D01*
X01645054Y00355000D01*
X01626677Y00347388D01*
X01429289Y00150000D01*
X01311658Y00150000D01*
X01327248Y00165589D01*
X01336496Y00187916D01*
X01336496Y00212084D01*
X01327248Y00234411D01*
X01311659Y00250000D01*
X01327248Y00265589D01*
X01336496Y00287916D01*
X01336496Y00312084D01*
X01327248Y00334411D01*
X01311659Y00350000D01*
X01327248Y00365589D01*
X01336496Y00387916D01*
X01336496Y00390785D01*
X01720711Y00775000D01*
X01884946Y00775000D01*
X01903323Y00782612D01*
X01917388Y00796677D01*
X02117388Y00996677D01*
X02125000Y01015054D01*
X02125000Y02484946D01*
X02117388Y02503323D01*
X02103323Y02517388D01*
X02003323Y02617388D01*
X01984946Y02625000D01*
X01746924Y02625000D01*
X01755104Y02633180D01*
X01765000Y02657071D01*
X01765000Y02742929D01*
X01755104Y02766820D01*
X01736820Y02785104D01*
X01712929Y02795000D01*
X01687071Y02795000D01*
X01663180Y02785104D01*
X01644896Y02766820D01*
X01643566Y02763608D01*
X01641952Y02765830D01*
X01635830Y02771952D01*
X01628826Y02777040D01*
X01621113Y02780970D01*
X01612879Y02783646D01*
X01604329Y02785000D01*
X01600000Y02785000D01*
X01600000Y02700001D01*
X01599999Y02700001D01*
X01599999Y02785000D01*
X01595671Y02785000D01*
X01587121Y02783646D01*
X01578887Y02780970D01*
X01571174Y02777040D01*
X01564170Y02771952D01*
X01558048Y02765830D01*
X01556434Y02763608D01*
X01555104Y02766820D01*
X01536820Y02785104D01*
X01512929Y02795000D01*
X01487071Y02795000D01*
X01479038Y02791672D01*
X01403323Y02867388D01*
X01375000Y02825000D02*
X01500000Y02700000D01*
X01525332Y02789863D02*
X01674668Y02789863D01*
X01725332Y02789863D02*
X02132008Y02789863D01*
X02132008Y02819861D02*
X01450849Y02819861D01*
X01375000Y02825000D02*
X01000000Y02825000D01*
X01000000Y02275000D01*
X01075000Y02200000D01*
X01100000Y02200000D01*
X01100000Y02100000D02*
X00800000Y02100000D01*
X00800000Y02700000D01*
X00725000Y02775000D01*
X00575000Y02775000D01*
X00500000Y02700000D01*
X00300000Y02700000D01*
X00225000Y02725000D02*
X00325000Y02825000D01*
X01000000Y02825000D01*
X01100000Y02700000D02*
X01375000Y02700000D01*
X01500000Y02575000D01*
X01975000Y02575000D01*
X02075000Y02475000D01*
X02075000Y01025000D01*
X01875000Y00825000D01*
X01700000Y00825000D01*
X01700000Y01875000D01*
X01575000Y02000000D01*
X01550000Y02000000D01*
X01550000Y01900000D02*
X01500000Y01900000D01*
X01400000Y01750000D01*
X01350000Y01700000D01*
X01409872Y01679917D02*
X01466817Y01679917D01*
X01463504Y01687916D02*
X01472752Y01665589D01*
X01489841Y01648500D01*
X01499668Y01644430D01*
X01497654Y01643404D01*
X01491192Y01638708D01*
X01485544Y01633060D01*
X01480848Y01626598D01*
X01477222Y01619480D01*
X01474754Y01611883D01*
X01473504Y01603994D01*
X01473504Y01600000D01*
X01549999Y01600000D01*
X01549999Y01599999D01*
X01473504Y01599999D01*
X01473504Y01596006D01*
X01474754Y01588116D01*
X01477222Y01580519D01*
X01480848Y01573402D01*
X01485544Y01566940D01*
X01491192Y01561292D01*
X01497654Y01556596D01*
X01499668Y01555570D01*
X01489841Y01551500D01*
X01472752Y01534411D01*
X01463504Y01512084D01*
X01463504Y01487916D01*
X01464588Y01485299D01*
X01204289Y01225000D01*
X01190054Y01225000D01*
X01171677Y01217388D01*
X00871677Y00917388D01*
X00857612Y00903323D01*
X00850000Y00884946D01*
X00850000Y00655902D01*
X00729225Y00595514D01*
X00721677Y00592388D01*
X00720382Y00591093D01*
X00718744Y00590273D01*
X00713390Y00584100D01*
X00707612Y00578323D01*
X00706911Y00576630D01*
X00705711Y00575247D01*
X00703127Y00567495D01*
X00700000Y00559946D01*
X00700000Y00558114D01*
X00699421Y00556376D01*
X00700000Y00548226D01*
X00700000Y00540139D01*
X00661144Y00481854D01*
X00657612Y00478323D01*
X00655681Y00473660D01*
X00652881Y00469460D01*
X00651911Y00464560D01*
X00650000Y00459946D01*
X00650000Y00454898D01*
X00649020Y00449947D01*
X00650000Y00445049D01*
X00650000Y00439095D01*
X00635687Y00453409D01*
X00612531Y00463000D01*
X00587468Y00463000D01*
X00564313Y00453409D01*
X00546591Y00435687D01*
X00540182Y00420214D01*
X00426340Y00344319D01*
X00421677Y00342388D01*
X00418146Y00338856D01*
X00413990Y00336086D01*
X00412963Y00334553D01*
X00408808Y00338708D01*
X00402346Y00343404D01*
X00400332Y00344430D01*
X00410159Y00348500D01*
X00412870Y00351211D01*
X00413311Y00351394D01*
X00416917Y00351909D01*
X00422417Y00355166D01*
X00428323Y00357612D01*
X00430898Y00360188D01*
X00434033Y00362043D01*
X00437868Y00367158D01*
X00442388Y00371677D01*
X00443781Y00375042D01*
X00566475Y00538633D01*
X00585687Y00546591D01*
X00603409Y00564313D01*
X00613000Y00587468D01*
X00613000Y00612531D01*
X00603409Y00635687D01*
X00585687Y00653409D01*
X00562531Y00663000D01*
X00537468Y00663000D01*
X00514313Y00653409D01*
X00500000Y00639095D01*
X00500000Y00660905D01*
X00503409Y00664313D01*
X00513000Y00687468D01*
X00513000Y00712531D01*
X00503409Y00735687D01*
X00485687Y00753409D01*
X00462531Y00763000D01*
X00437468Y00763000D01*
X00415600Y00753942D01*
X00427248Y00765589D01*
X00436496Y00787916D01*
X00436496Y00790785D01*
X01028323Y01382612D01*
X01042388Y01396677D01*
X01050000Y01415054D01*
X01050000Y01455401D01*
X01054771Y01452970D01*
X01062368Y01450502D01*
X01070258Y01449252D01*
X01099999Y01449252D01*
X01099999Y01499999D01*
X01100000Y01499999D01*
X01100000Y01449252D01*
X01129742Y01449252D01*
X01137632Y01450502D01*
X01145228Y01452970D01*
X01152346Y01456596D01*
X01158808Y01461292D01*
X01164456Y01466940D01*
X01169152Y01473402D01*
X01172778Y01480519D01*
X01175246Y01488116D01*
X01176496Y01496006D01*
X01176496Y01499999D01*
X01100001Y01499999D01*
X01100001Y01500000D01*
X01176496Y01500000D01*
X01176496Y01503994D01*
X01175246Y01511883D01*
X01172778Y01519480D01*
X01169152Y01526598D01*
X01164456Y01533060D01*
X01158808Y01538708D01*
X01152346Y01543404D01*
X01150332Y01544430D01*
X01160159Y01548500D01*
X01177248Y01565589D01*
X01186496Y01587916D01*
X01186496Y01590785D01*
X01287000Y01691289D01*
X01287000Y01687468D01*
X01296591Y01664313D01*
X01314313Y01646591D01*
X01337468Y01637000D01*
X01362531Y01637000D01*
X01385687Y01646591D01*
X01403409Y01664313D01*
X01413000Y01687468D01*
X01413000Y01692289D01*
X01431892Y01711181D01*
X01436086Y01713990D01*
X01438856Y01718146D01*
X01442388Y01721677D01*
X01444319Y01726340D01*
X01471883Y01767687D01*
X01472752Y01765589D01*
X01488341Y01750000D01*
X01472752Y01734411D01*
X01463504Y01712084D01*
X01463504Y01687916D01*
X01463504Y01709916D02*
X01430626Y01709916D01*
X01453369Y01739914D02*
X01478256Y01739914D01*
X01488422Y01649919D02*
X01389014Y01649919D01*
X01400000Y01600000D02*
X01400000Y01500000D01*
X01449217Y01469928D02*
X01166627Y01469928D01*
X01176496Y01499926D02*
X01463504Y01499926D01*
X01470894Y01529925D02*
X01166734Y01529925D01*
X01171582Y01559923D02*
X01493075Y01559923D01*
X01474468Y01589922D02*
X01186496Y01589922D01*
X01225000Y01600000D02*
X01100000Y01475000D01*
X01100000Y01500000D01*
X01099999Y01499926D02*
X01100000Y01499926D01*
X01100000Y01475000D02*
X01100000Y01450000D01*
X00850000Y01200000D01*
X00850000Y01050000D01*
X00750000Y01050000D01*
X00725657Y01079947D02*
X01034236Y01079947D01*
X01064235Y01109945D02*
X00755656Y01109945D01*
X00785655Y01139944D02*
X01094233Y01139944D01*
X01124232Y01169942D02*
X00815653Y01169942D01*
X00845652Y01199941D02*
X01154230Y01199941D01*
X01200000Y01175000D02*
X00900000Y00875000D01*
X00900000Y00625000D01*
X00750000Y00550000D01*
X00750000Y00525000D01*
X00700000Y00450000D01*
X00700000Y00350000D01*
X00400000Y00125000D01*
X00300000Y00125000D01*
X00150000Y00275000D01*
X00150000Y01925000D01*
X00425000Y02100000D01*
X00450000Y02100000D01*
X00475000Y02100000D01*
X00550000Y02025000D01*
X00625000Y02100000D01*
X00800000Y02100000D01*
X00950000Y02000000D02*
X00750000Y01800000D01*
X00750000Y01500000D01*
X00450000Y01200000D01*
X00450000Y01000000D01*
X00545666Y00899956D02*
X00856218Y00899956D01*
X00850000Y00869957D02*
X00515668Y00869957D01*
X00485669Y00839959D02*
X00850000Y00839959D01*
X00850000Y00809960D02*
X00455671Y00809960D01*
X00433201Y00779962D02*
X00850000Y00779962D01*
X00850000Y00775000D02*
X00850000Y01050000D01*
X00914242Y00959953D02*
X00605663Y00959953D01*
X00635662Y00989951D02*
X00944241Y00989951D01*
X00974239Y01019950D02*
X00665660Y01019950D01*
X00695659Y01049948D02*
X01004238Y01049948D01*
X00884244Y00929954D02*
X00575665Y00929954D01*
X00489132Y00749963D02*
X00850000Y00749963D01*
X00850000Y00775000D02*
X00375000Y00300000D01*
X00350000Y00300000D01*
X00350001Y00300000D02*
X00399031Y00300000D01*
X00399031Y00299999D01*
X00350001Y00299999D01*
X00350001Y00300000D01*
X00349999Y00299999D02*
X00273504Y00299999D01*
X00273504Y00296006D01*
X00274754Y00288116D01*
X00277222Y00280519D01*
X00280848Y00273402D01*
X00285544Y00266940D01*
X00291192Y00261292D01*
X00297654Y00256596D01*
X00299668Y00255570D01*
X00289841Y00251500D01*
X00272752Y00234411D01*
X00269398Y00226313D01*
X00200000Y00295711D01*
X00200000Y01771448D01*
X00200000Y01771446D01*
X00200000Y00765054D01*
X00207612Y00746677D01*
X00221677Y00732612D01*
X00221677Y00732612D01*
X00263504Y00690785D01*
X00263504Y00687916D01*
X00272752Y00665589D01*
X00288341Y00650000D01*
X00272752Y00634411D01*
X00263504Y00612084D01*
X00263504Y00587916D01*
X00272752Y00565589D01*
X00288341Y00550000D01*
X00272752Y00534411D01*
X00263504Y00512084D01*
X00263504Y00487916D01*
X00272752Y00465589D01*
X00288341Y00450000D01*
X00272752Y00434411D01*
X00263504Y00412084D01*
X00263504Y00387916D01*
X00272752Y00365589D01*
X00289841Y00348500D01*
X00299668Y00344430D01*
X00297654Y00343404D01*
X00291192Y00338708D01*
X00285544Y00333060D01*
X00280848Y00326598D01*
X00277222Y00319480D01*
X00274754Y00311883D01*
X00273504Y00303994D01*
X00273504Y00300000D01*
X00349999Y00300000D01*
X00349999Y00299999D01*
X00283330Y00269987D02*
X00225724Y00269987D01*
X00255722Y00239988D02*
X00278329Y00239988D01*
X00273504Y00299985D02*
X00200000Y00299985D01*
X00200000Y00329984D02*
X00283309Y00329984D01*
X00278359Y00359982D02*
X00200000Y00359982D01*
X00200000Y00389981D02*
X00263504Y00389981D01*
X00266774Y00419979D02*
X00200000Y00419979D01*
X00200000Y00449978D02*
X00288319Y00449978D01*
X00266793Y00479976D02*
X00200000Y00479976D01*
X00200000Y00509975D02*
X00263504Y00509975D01*
X00278315Y00539973D02*
X00200000Y00539973D01*
X00200000Y00569972D02*
X00270937Y00569972D01*
X00263504Y00599970D02*
X00200000Y00599970D01*
X00200000Y00629969D02*
X00270912Y00629969D01*
X00278374Y00659968D02*
X00200000Y00659968D01*
X00200000Y00689966D02*
X00263504Y00689966D01*
X00234325Y00719965D02*
X00200000Y00719965D01*
X00200000Y00749963D02*
X00206251Y00749963D01*
X00200000Y00779962D02*
X00200000Y00779962D01*
X00200000Y00809960D02*
X00200000Y00809960D01*
X00200000Y00839959D02*
X00200000Y00839959D01*
X00200000Y00869957D02*
X00200000Y00869957D01*
X00200000Y00899956D02*
X00200000Y00899956D01*
X00200000Y00929954D02*
X00200000Y00929954D01*
X00200000Y00959953D02*
X00200000Y00959953D01*
X00200000Y00989951D02*
X00200000Y00989951D01*
X00200000Y01019950D02*
X00200000Y01019950D01*
X00200000Y01049948D02*
X00200000Y01049948D01*
X00200000Y01079947D02*
X00200000Y01079947D01*
X00200000Y01109945D02*
X00200000Y01109945D01*
X00200000Y01139944D02*
X00200000Y01139944D01*
X00200000Y01169942D02*
X00200000Y01169942D01*
X00200000Y01199941D02*
X00200000Y01199941D01*
X00200000Y01229939D02*
X00200000Y01229939D01*
X00200000Y01259938D02*
X00200000Y01259938D01*
X00200000Y01289937D02*
X00200000Y01289937D01*
X00200000Y01319935D02*
X00200000Y01319935D01*
X00200000Y01349934D02*
X00200000Y01349934D01*
X00200000Y01379932D02*
X00200000Y01379932D01*
X00200000Y01409931D02*
X00200000Y01409931D01*
X00200000Y01439929D02*
X00200000Y01439929D01*
X00200000Y01469928D02*
X00200000Y01469928D01*
X00200000Y01499926D02*
X00200000Y01499926D01*
X00200000Y01529925D02*
X00200000Y01529925D01*
X00200000Y01559923D02*
X00200000Y01559923D01*
X00200000Y01589922D02*
X00200000Y01589922D01*
X00200000Y01619920D02*
X00200000Y01619920D01*
X00200000Y01649919D02*
X00200000Y01649919D01*
X00200000Y01679917D02*
X00200000Y01679917D01*
X00200000Y01709916D02*
X00200000Y01709916D01*
X00200000Y01739914D02*
X00200000Y01739914D01*
X00200000Y01769913D02*
X00200000Y01769913D01*
X00250000Y01775000D02*
X00425000Y01800000D01*
X00450000Y01800000D01*
X00350000Y01700000D02*
X00350000Y01600000D01*
X00450000Y01600000D01*
X00399668Y01544430D02*
X00397654Y01543404D01*
X00391192Y01538708D01*
X00385544Y01533060D01*
X00380848Y01526598D01*
X00377222Y01519480D01*
X00374754Y01511883D01*
X00373504Y01503994D01*
X00373504Y01500000D01*
X00449999Y01500000D01*
X00449999Y01499999D01*
X00450000Y01499999D01*
X00450000Y01449252D01*
X00453541Y01449252D01*
X00307612Y01303323D01*
X00300000Y01284946D01*
X00300000Y01155708D01*
X00300000Y01660905D01*
X00300000Y01660905D01*
X00300000Y01590054D01*
X00307612Y01571677D01*
X00321677Y01557612D01*
X00340054Y01550000D01*
X00388341Y01550000D01*
X00389841Y01548500D01*
X00399668Y01544430D01*
X00383266Y01529925D02*
X00300000Y01529925D01*
X00300000Y01559923D02*
X00319366Y01559923D01*
X00300055Y01589922D02*
X00300000Y01589922D01*
X00300000Y01619920D02*
X00300000Y01619920D01*
X00300000Y01649919D02*
X00300000Y01649919D01*
X00250000Y01775000D02*
X00250000Y00775000D01*
X00325000Y00700000D01*
X00350000Y00700000D01*
X00350000Y00800000D02*
X00375000Y00800000D01*
X01000000Y01425000D01*
X01000000Y01725000D01*
X01075000Y01800000D01*
X01100000Y01800000D01*
X01100000Y01900000D02*
X01000000Y01900000D01*
X00850000Y01750000D01*
X00850000Y01450000D01*
X00650000Y01250000D01*
X00550000Y01475000D02*
X00550000Y02025000D01*
X00450000Y02200000D02*
X00425000Y02200000D01*
X00225000Y02400000D01*
X00225000Y02725000D01*
X00189154Y02759864D02*
X00055000Y02759864D01*
X00055000Y02729866D02*
X00175000Y02729866D01*
X00175000Y02699867D02*
X00055000Y02699867D01*
X00055000Y02669869D02*
X00175000Y02669869D01*
X00175000Y02639870D02*
X00055000Y02639870D01*
X00055000Y02609872D02*
X00175000Y02609872D01*
X00175000Y02579873D02*
X00055000Y02579873D01*
X00055000Y02549875D02*
X00175000Y02549875D01*
X00175000Y02519876D02*
X00055000Y02519876D01*
X00055000Y02489877D02*
X00175000Y02489877D01*
X00175000Y02459879D02*
X00055000Y02459879D01*
X00055000Y02429880D02*
X00175000Y02429880D01*
X00175000Y02399882D02*
X00055000Y02399882D01*
X00055000Y02369883D02*
X00184406Y02369883D01*
X00214404Y02339885D02*
X00055000Y02339885D01*
X00055000Y02309886D02*
X00244403Y02309886D01*
X00274401Y02279888D02*
X00055000Y02279888D01*
X00055000Y02249889D02*
X00289787Y02249889D01*
X00300000Y02200000D02*
X00450000Y02200000D01*
X00388341Y02150000D02*
X00388341Y02150000D01*
X00370882Y02129895D02*
X00271594Y02129895D01*
X00238992Y02099897D02*
X00331706Y02099897D01*
X00284566Y02069898D02*
X00055000Y02069898D01*
X00055000Y02039900D02*
X00237425Y02039900D01*
X00190285Y02009901D02*
X00055000Y02009901D01*
X00055000Y01979903D02*
X00143144Y01979903D01*
X00106196Y01949904D02*
X00055000Y01949904D01*
X00055000Y01919906D02*
X00100000Y01919906D01*
X00100000Y01889907D02*
X00055000Y01889907D01*
X00055000Y01859908D02*
X00100000Y01859908D01*
X00100000Y01829910D02*
X00055000Y01829910D01*
X00055000Y01799911D02*
X00100000Y01799911D01*
X00100000Y01769913D02*
X00055000Y01769913D01*
X00055000Y01739914D02*
X00100000Y01739914D01*
X00100000Y01709916D02*
X00055000Y01709916D01*
X00055000Y01679917D02*
X00100000Y01679917D01*
X00100000Y01649919D02*
X00055000Y01649919D01*
X00055000Y01619920D02*
X00100000Y01619920D01*
X00100000Y01589922D02*
X00055000Y01589922D01*
X00055000Y01559923D02*
X00100000Y01559923D01*
X00100000Y01529925D02*
X00055000Y01529925D01*
X00055000Y01499926D02*
X00100000Y01499926D01*
X00100000Y01469928D02*
X00055000Y01469928D01*
X00055000Y01439929D02*
X00100000Y01439929D01*
X00100000Y01409931D02*
X00055000Y01409931D01*
X00055000Y01379932D02*
X00100000Y01379932D01*
X00100000Y01349934D02*
X00055000Y01349934D01*
X00055000Y01319935D02*
X00100000Y01319935D01*
X00100000Y01289937D02*
X00055000Y01289937D01*
X00055000Y01259938D02*
X00100000Y01259938D01*
X00100000Y01229939D02*
X00055000Y01229939D01*
X00055000Y01199941D02*
X00100000Y01199941D01*
X00100000Y01169942D02*
X00055000Y01169942D01*
X00055000Y01139944D02*
X00100000Y01139944D01*
X00100000Y01109945D02*
X00055000Y01109945D01*
X00055000Y01079947D02*
X00100000Y01079947D01*
X00100000Y01049948D02*
X00055000Y01049948D01*
X00055000Y01019950D02*
X00100000Y01019950D01*
X00100000Y00989951D02*
X00055000Y00989951D01*
X00055000Y00959953D02*
X00100000Y00959953D01*
X00100000Y00929954D02*
X00055000Y00929954D01*
X00055000Y00899956D02*
X00100000Y00899956D01*
X00100000Y00869957D02*
X00055000Y00869957D01*
X00055000Y00839959D02*
X00100000Y00839959D01*
X00100000Y00809960D02*
X00055000Y00809960D01*
X00055000Y00779962D02*
X00100000Y00779962D01*
X00100000Y00749963D02*
X00055000Y00749963D01*
X00055000Y00719965D02*
X00100000Y00719965D01*
X00100000Y00689966D02*
X00055000Y00689966D01*
X00055000Y00659968D02*
X00100000Y00659968D01*
X00100000Y00629969D02*
X00055000Y00629969D01*
X00055000Y00599970D02*
X00100000Y00599970D01*
X00100000Y00569972D02*
X00055000Y00569972D01*
X00055000Y00539973D02*
X00100000Y00539973D01*
X00100000Y00509975D02*
X00055000Y00509975D01*
X00055000Y00479976D02*
X00100000Y00479976D01*
X00100000Y00449978D02*
X00055000Y00449978D01*
X00055000Y00419979D02*
X00100000Y00419979D01*
X00100000Y00389981D02*
X00055000Y00389981D01*
X00055000Y00359982D02*
X00100000Y00359982D01*
X00100000Y00329984D02*
X00055000Y00329984D01*
X00055000Y00299985D02*
X00100000Y00299985D01*
X00100000Y00269987D02*
X00055000Y00269987D01*
X00055000Y00239988D02*
X00114301Y00239988D01*
X00144300Y00209990D02*
X00055000Y00209990D01*
X00055000Y00179991D02*
X00174298Y00179991D01*
X00204297Y00149993D02*
X00055000Y00149993D01*
X00055000Y00119994D02*
X00234295Y00119994D01*
X00264294Y00089996D02*
X00055000Y00089996D01*
X00055000Y00059997D02*
X00769292Y00059997D01*
X00750024Y00089996D02*
X00436661Y00089996D01*
X00476659Y00119994D02*
X00750000Y00119994D01*
X00750000Y00149993D02*
X00516657Y00149993D01*
X00556655Y00179991D02*
X00750000Y00179991D01*
X00750000Y00209990D02*
X00596653Y00209990D01*
X00636651Y00239988D02*
X00750000Y00239988D01*
X00750000Y00269987D02*
X00676649Y00269987D01*
X00716647Y00299985D02*
X00750000Y00299985D01*
X00750000Y00329984D02*
X00746256Y00329984D01*
X00800000Y00400000D02*
X00800000Y00100000D01*
X01450000Y00100000D01*
X01655000Y00305000D01*
X01800000Y00305000D01*
X01866941Y00359982D02*
X02132008Y00359982D01*
X02132008Y00329984D02*
X01890007Y00329984D01*
X01895000Y00299985D02*
X02132008Y00299985D01*
X02132008Y00269987D02*
X01885852Y00269987D01*
X01876936Y00239988D02*
X02132008Y00239988D01*
X02132008Y00209990D02*
X01894147Y00209990D01*
X01894138Y00179991D02*
X02132008Y00179991D01*
X02132008Y00149993D02*
X01876916Y00149993D01*
X01800000Y00195000D02*
X01705000Y00100000D01*
X01700000Y00100000D01*
X01640091Y00119994D02*
X01540705Y00119994D01*
X01570703Y00149993D02*
X01660897Y00149993D01*
X01705861Y00179991D02*
X01600702Y00179991D01*
X01630700Y00209990D02*
X01705853Y00209990D01*
X01723064Y00239988D02*
X01660699Y00239988D01*
X01579275Y00299985D02*
X01336496Y00299985D01*
X01329082Y00329984D02*
X01609273Y00329984D01*
X01549276Y00269987D02*
X01329069Y00269987D01*
X01321670Y00239988D02*
X01519278Y00239988D01*
X01489279Y00209990D02*
X01336496Y00209990D01*
X01333213Y00179991D02*
X01459281Y00179991D01*
X01510706Y00089996D02*
X01637000Y00089996D01*
X01650907Y00059997D02*
X01480708Y00059997D01*
X01321641Y00359982D02*
X01733058Y00359982D01*
X01795705Y00119994D02*
X02132008Y00119994D01*
X02132008Y00089996D02*
X01765706Y00089996D01*
X01749092Y00059997D02*
X02132008Y00059997D01*
X02132008Y00029999D02*
X00055000Y00029999D01*
X00350000Y00200000D02*
X00450000Y00250000D01*
X00450000Y00300000D01*
X00600000Y00400000D01*
X00560883Y00449978D02*
X00499983Y00449978D01*
X00522482Y00479976D02*
X00659266Y00479976D01*
X00649027Y00449978D02*
X00639117Y00449978D01*
X00679891Y00509975D02*
X00544981Y00509975D01*
X00569710Y00539973D02*
X00699890Y00539973D01*
X00703953Y00569972D02*
X00605753Y00569972D01*
X00613000Y00599970D02*
X00738138Y00599970D01*
X00798135Y00629969D02*
X00605777Y00629969D01*
X00569852Y00659968D02*
X00850000Y00659968D01*
X00850000Y00689966D02*
X00513000Y00689966D01*
X00509921Y00719965D02*
X00850000Y00719965D01*
X00550000Y00600000D02*
X00400000Y00400000D01*
X00350000Y00400000D01*
X00350000Y00500000D02*
X00400000Y00500000D01*
X00450000Y00550000D01*
X00450000Y00700000D01*
X00500000Y00659968D02*
X00530148Y00659968D01*
X00539830Y00419979D02*
X00477484Y00419979D01*
X00494833Y00389981D02*
X00454985Y00389981D01*
X00449835Y00359982D02*
X00430693Y00359982D01*
X00350000Y01100000D02*
X00350000Y01275000D01*
X00550000Y01475000D01*
X00450000Y01469928D02*
X00449999Y01469928D01*
X00449999Y01449252D02*
X00449999Y01499999D01*
X00373504Y01499999D01*
X00373504Y01496006D01*
X00374754Y01488116D01*
X00377222Y01480519D01*
X00380848Y01473402D01*
X00385544Y01466940D01*
X00391192Y01461292D01*
X00397654Y01456596D01*
X00404771Y01452970D01*
X00412368Y01450502D01*
X00420258Y01449252D01*
X00449999Y01449252D01*
X00444219Y01439929D02*
X00300000Y01439929D01*
X00300000Y01409931D02*
X00414220Y01409931D01*
X00384222Y01379932D02*
X00300000Y01379932D01*
X00300000Y01349934D02*
X00354223Y01349934D01*
X00324225Y01319935D02*
X00300000Y01319935D01*
X00300000Y01289937D02*
X00302067Y01289937D01*
X00300000Y01259938D02*
X00300000Y01259938D01*
X00300000Y01229939D02*
X00300000Y01229939D01*
X00300000Y01199941D02*
X00300000Y01199941D01*
X00300000Y01169942D02*
X00300000Y01169942D01*
X00300000Y01155708D02*
X00300000Y01155708D01*
X00300000Y01469928D02*
X00383373Y01469928D01*
X00373504Y01499926D02*
X00300000Y01499926D01*
X00350000Y01500000D02*
X00450000Y01500000D01*
X00449999Y01499926D02*
X00450000Y01499926D01*
X00875650Y01229939D02*
X01209229Y01229939D01*
X01239227Y01259938D02*
X00905649Y01259938D01*
X00935647Y01289937D02*
X01269226Y01289937D01*
X01299225Y01319935D02*
X00965646Y01319935D01*
X00995644Y01349934D02*
X01329223Y01349934D01*
X01359222Y01379932D02*
X01025643Y01379932D01*
X01047877Y01409931D02*
X01389220Y01409931D01*
X01419219Y01439929D02*
X01050000Y01439929D01*
X01099999Y01469928D02*
X01100000Y01469928D01*
X01100000Y01600000D02*
X01125000Y01600000D01*
X01450000Y01925000D01*
X01450000Y02425000D01*
X01500000Y02475000D01*
X01600000Y02475000D01*
X01800000Y02275000D01*
X01800000Y01005000D01*
X01800000Y00895000D02*
X01800000Y00875000D01*
X01900000Y00975000D01*
X01900000Y02250000D01*
X01625000Y02525000D01*
X01475000Y02525000D01*
X01350000Y02400000D01*
X01100000Y02400000D01*
X01100000Y02000000D02*
X00950000Y02000000D01*
X01215631Y01619920D02*
X01477446Y01619920D01*
X01550000Y01600000D02*
X01400000Y01600000D01*
X01225000Y01600000D01*
X01245629Y01649919D02*
X01310986Y01649919D01*
X01290128Y01679917D02*
X01275628Y01679917D01*
X01550000Y01500000D02*
X01225000Y01175000D01*
X01200000Y01175000D01*
X01650000Y01075000D02*
X01275000Y00700000D01*
X01250000Y00700000D01*
X01425687Y00479976D02*
X02132008Y00479976D01*
X02132008Y00449978D02*
X01395688Y00449978D01*
X01365690Y00419979D02*
X02132008Y00419979D01*
X02132008Y00389981D02*
X01336496Y00389981D01*
X01275000Y00400000D02*
X01700000Y00825000D01*
X01695674Y00749963D02*
X02132008Y00749963D01*
X02132008Y00719965D02*
X01665675Y00719965D01*
X01635677Y00689966D02*
X02132008Y00689966D01*
X02132008Y00659968D02*
X01605678Y00659968D01*
X01575680Y00629969D02*
X02132008Y00629969D01*
X02132008Y00599970D02*
X01545681Y00599970D01*
X01515682Y00569972D02*
X02132008Y00569972D01*
X02132008Y00539973D02*
X01485684Y00539973D01*
X01455685Y00509975D02*
X02132008Y00509975D01*
X02132008Y00779962D02*
X01896924Y00779962D01*
X01930671Y00809960D02*
X02132008Y00809960D01*
X02132008Y00839959D02*
X01960669Y00839959D01*
X01990668Y00869957D02*
X02132008Y00869957D01*
X02132008Y00899956D02*
X02020666Y00899956D01*
X02050665Y00929954D02*
X02132008Y00929954D01*
X02132008Y00959953D02*
X02080663Y00959953D01*
X02110662Y00989951D02*
X02132008Y00989951D01*
X02132008Y01019950D02*
X02125000Y01019950D01*
X02125000Y01049948D02*
X02132008Y01049948D01*
X02132008Y01079947D02*
X02125000Y01079947D01*
X02125000Y01109945D02*
X02132008Y01109945D01*
X02132008Y01139944D02*
X02125000Y01139944D01*
X02125000Y01169942D02*
X02132008Y01169942D01*
X02132008Y01199941D02*
X02125000Y01199941D01*
X02125000Y01229939D02*
X02132008Y01229939D01*
X02132008Y01259938D02*
X02125000Y01259938D01*
X02125000Y01289937D02*
X02132008Y01289937D01*
X02132008Y01319935D02*
X02125000Y01319935D01*
X02125000Y01349934D02*
X02132008Y01349934D01*
X02132008Y01379932D02*
X02125000Y01379932D01*
X02125000Y01409931D02*
X02132008Y01409931D01*
X02132008Y01439929D02*
X02125000Y01439929D01*
X02125000Y01469928D02*
X02132008Y01469928D01*
X02132008Y01499926D02*
X02125000Y01499926D01*
X02125000Y01529925D02*
X02132008Y01529925D01*
X02132008Y01559923D02*
X02125000Y01559923D01*
X02125000Y01589922D02*
X02132008Y01589922D01*
X02132008Y01619920D02*
X02125000Y01619920D01*
X02125000Y01649919D02*
X02132008Y01649919D01*
X02132008Y01679917D02*
X02125000Y01679917D01*
X02125000Y01709916D02*
X02132008Y01709916D01*
X02132008Y01739914D02*
X02125000Y01739914D01*
X02125000Y01769913D02*
X02132008Y01769913D01*
X02132008Y01799911D02*
X02125000Y01799911D01*
X02125000Y01829910D02*
X02132008Y01829910D01*
X02132008Y01859908D02*
X02125000Y01859908D01*
X02125000Y01889907D02*
X02132008Y01889907D01*
X02132008Y01919906D02*
X02125000Y01919906D01*
X02125000Y01949904D02*
X02132008Y01949904D01*
X02132008Y01979903D02*
X02125000Y01979903D01*
X02125000Y02009901D02*
X02132008Y02009901D01*
X02132008Y02039900D02*
X02125000Y02039900D01*
X02125000Y02069898D02*
X02132008Y02069898D01*
X02132008Y02099897D02*
X02125000Y02099897D01*
X02125000Y02129895D02*
X02132008Y02129895D01*
X02132008Y02159894D02*
X02125000Y02159894D01*
X02125000Y02189892D02*
X02132008Y02189892D01*
X02132008Y02219891D02*
X02125000Y02219891D01*
X02125000Y02249889D02*
X02132008Y02249889D01*
X02132008Y02279888D02*
X02125000Y02279888D01*
X02125000Y02309886D02*
X02132008Y02309886D01*
X02132008Y02339885D02*
X02125000Y02339885D01*
X02125000Y02369883D02*
X02132008Y02369883D01*
X02132008Y02399882D02*
X02125000Y02399882D01*
X02125000Y02429880D02*
X02132008Y02429880D01*
X02132008Y02459879D02*
X02125000Y02459879D01*
X02122957Y02489877D02*
X02132008Y02489877D01*
X02132008Y02519876D02*
X02100835Y02519876D01*
X02070836Y02549875D02*
X02132008Y02549875D01*
X02132008Y02579873D02*
X02040837Y02579873D01*
X02010839Y02609872D02*
X02132008Y02609872D01*
X02132008Y02639870D02*
X01757875Y02639870D01*
X01765000Y02669869D02*
X02132008Y02669869D01*
X02132008Y02699867D02*
X01765000Y02699867D01*
X01765000Y02729866D02*
X02132008Y02729866D01*
X02132008Y02759864D02*
X01757985Y02759864D01*
X01600000Y02759864D02*
X01599999Y02759864D01*
X01599999Y02729866D02*
X01600000Y02729866D01*
X01600000Y02700000D02*
X01600000Y02850000D01*
X01575000Y01900000D02*
X01550000Y01900000D01*
X01575000Y01900000D02*
X01650000Y01825000D01*
X01650000Y01075000D01*
X01275000Y00400000D02*
X01250000Y00400000D01*
X00161008Y02099897D02*
X00055000Y02099897D01*
X00055000Y02129895D02*
X00140137Y02129895D01*
X00137000Y02159894D02*
X00055000Y02159894D01*
X00055000Y02189892D02*
X00150797Y02189892D01*
X00200000Y02150000D02*
X00300000Y02200000D01*
X00227978Y02219891D02*
X00055000Y02219891D01*
X00300000Y02550000D02*
X00450000Y02400000D01*
X00650000Y02600000D02*
X00650000Y02650000D01*
X00600000Y02700000D01*
X00279149Y02849860D02*
X00055000Y02849860D01*
X00055000Y02819861D02*
X00249151Y02819861D01*
X00219152Y02789863D02*
X00055000Y02789863D01*
D14*
X00300000Y02550000D03*
X00200000Y02150000D03*
X00350000Y01700000D03*
X00350000Y01500000D03*
X00650000Y01250000D03*
X00750000Y01050000D03*
X00450000Y01000000D03*
X00450000Y00700000D03*
X00550000Y00600000D03*
X00600000Y00400000D03*
X00800000Y00400000D03*
X01400000Y01500000D03*
X01350000Y01700000D03*
X00650000Y02600000D03*
X01600000Y02850000D03*
X01700000Y00100000D03*
M02*
