G75*
%MOIN*%
%OFA0B0*%
%FSLAX26Y26*%
%IPPOS*%
%LPD*%
%AMOC8*
5,1,8,0,0,1.08239X$1,22.5*
%
%ADD10C,0.060000*%
%ADD11OC8,0.052000*%
%ADD12C,0.051496*%
%ADD13C,0.074000*%
%ADD14OC8,0.056000*%
%ADD15C,0.030000*%
%ADD16C,0.032000*%
D10*
X01250000Y02720000D02*
X01250000Y02780000D01*
X01350000Y02780000D02*
X01350000Y02720000D01*
X01450000Y02720000D02*
X01450000Y02780000D01*
D11*
X01000000Y02750000D03*
X00700000Y02750000D03*
X00500000Y02750000D03*
X00200000Y02750000D03*
D12*
X00324252Y02400000D02*
X00375748Y02400000D01*
X00375748Y02300000D02*
X00324252Y02300000D01*
X00324252Y02200000D02*
X00375748Y02200000D01*
X00375748Y02100000D02*
X00324252Y02100000D01*
X00324252Y02000000D02*
X00375748Y02000000D01*
X00375748Y01900000D02*
X00324252Y01900000D01*
X00324252Y01800000D02*
X00375748Y01800000D01*
X00375748Y01700000D02*
X00324252Y01700000D01*
X00324252Y01600000D02*
X00375748Y01600000D01*
X00375748Y01500000D02*
X00324252Y01500000D01*
X00275748Y01100000D02*
X00224252Y01100000D01*
X00224252Y01000000D02*
X00275748Y01000000D01*
X00275748Y00900000D02*
X00224252Y00900000D01*
X00224252Y00800000D02*
X00275748Y00800000D01*
X00275748Y00700000D02*
X00224252Y00700000D01*
X00224252Y00600000D02*
X00275748Y00600000D01*
X00275748Y00500000D02*
X00224252Y00500000D01*
X00224252Y00400000D02*
X00275748Y00400000D01*
X00275748Y00300000D02*
X00224252Y00300000D01*
X00224252Y00200000D02*
X00275748Y00200000D01*
X01124252Y00200000D02*
X01175748Y00200000D01*
X01175748Y00300000D02*
X01124252Y00300000D01*
X01124252Y00400000D02*
X01175748Y00400000D01*
X01175748Y00500000D02*
X01124252Y00500000D01*
X01124252Y00600000D02*
X01175748Y00600000D01*
X01175748Y00700000D02*
X01124252Y00700000D01*
X01124252Y00800000D02*
X01175748Y00800000D01*
X01175748Y00900000D02*
X01124252Y00900000D01*
X01124252Y01000000D02*
X01175748Y01000000D01*
X01175748Y01100000D02*
X01124252Y01100000D01*
X01125748Y01500000D02*
X01074252Y01500000D01*
X01074252Y01600000D02*
X01125748Y01600000D01*
X01125748Y01700000D02*
X01074252Y01700000D01*
X01074252Y01800000D02*
X01125748Y01800000D01*
X01125748Y01900000D02*
X01074252Y01900000D01*
X01074252Y02000000D02*
X01125748Y02000000D01*
X01125748Y02100000D02*
X01074252Y02100000D01*
X01074252Y02200000D02*
X01125748Y02200000D01*
X01125748Y02300000D02*
X01074252Y02300000D01*
X01074252Y02400000D02*
X01125748Y02400000D01*
X00775748Y02400000D02*
X00724252Y02400000D01*
X00724252Y02300000D02*
X00775748Y02300000D01*
X00775748Y02200000D02*
X00724252Y02200000D01*
X00724252Y02100000D02*
X00775748Y02100000D01*
X00775748Y02000000D02*
X00724252Y02000000D01*
X00724252Y01900000D02*
X00775748Y01900000D01*
X00775748Y01800000D02*
X00724252Y01800000D01*
X00724252Y01700000D02*
X00775748Y01700000D01*
X00775748Y01600000D02*
X00724252Y01600000D01*
X00724252Y01500000D02*
X00775748Y01500000D01*
D13*
X01513000Y01075000D02*
X01587000Y01075000D01*
X01587000Y00875000D02*
X01513000Y00875000D01*
X01513000Y00475000D02*
X01587000Y00475000D01*
X01587000Y00275000D02*
X01513000Y00275000D01*
D14*
X01350000Y00150000D03*
X01650000Y00050000D03*
X01650000Y00950000D03*
X01300000Y01500000D03*
X01200000Y01900000D03*
X01400000Y01900000D03*
X01550000Y01900000D03*
X01400000Y02550000D03*
X00850000Y02200000D03*
X00650000Y02200000D03*
X00600000Y02300000D03*
X00500000Y02400000D03*
X00450000Y02200000D03*
X00600000Y02050000D03*
X00250000Y02250000D03*
X00500000Y02600000D03*
X00200000Y01800000D03*
X00950000Y00800000D03*
X00400000Y00250000D03*
D15*
X00400000Y01200000D01*
X00250000Y01350000D01*
X00250000Y02250000D01*
X00450000Y02200000D02*
X00650000Y02200000D01*
X00850000Y02200000D02*
X00850000Y01850000D01*
X00950000Y01750000D01*
X01400000Y01750000D01*
X01450000Y01800000D01*
X01450000Y02500000D01*
X01400000Y02550000D01*
X01550000Y01900000D02*
X01550000Y01650000D01*
X00950000Y01050000D01*
X00950000Y00800000D01*
D16*
X00100000Y00150000D02*
X00100000Y01700000D01*
X00200000Y01800000D01*
X00500000Y02350000D02*
X00500000Y02400000D01*
X00500000Y02350000D02*
X00550000Y00250000D01*
X00700000Y00150000D01*
X01350000Y00150000D01*
X01650000Y00050000D02*
X00200000Y00050000D01*
X00100000Y00150000D01*
X00700000Y01300000D02*
X01100000Y01300000D01*
X01300000Y01500000D01*
X01350000Y01900000D02*
X01400000Y01900000D01*
X01200000Y01900000D01*
X01350000Y01900000D02*
X01350000Y02450000D01*
X01200000Y02600000D01*
X00500000Y02600000D01*
X00450000Y02500000D02*
X00350000Y02600000D01*
X00350000Y02850000D01*
X00400000Y02900000D01*
X01450000Y02900000D01*
X01650000Y02700000D01*
X01650000Y01300000D01*
X01800000Y01150000D01*
X01800000Y01050000D01*
X01650000Y00950000D01*
X00700000Y01300000D02*
X00600000Y01400000D01*
X00600000Y02050000D01*
X00600000Y02300000D02*
X00600000Y02450000D01*
X00550000Y02500000D01*
X00450000Y02500000D01*
M02*
