%
M48
M72
T01C0.02756
T02C0.03150
T03C0.03200
T04C0.04000
%
T01
X57500Y67500
X47500Y77500
X47500Y107500
X67500Y132500
X77500Y112500
X37500Y157500
X37500Y177500
X22500Y222500
X32500Y262500
X67500Y267500
X137500Y177500
X142500Y157500
X82500Y47500
X62500Y47500
X172500Y17500
X162500Y292500
T02
X37500Y27500
X37500Y37500
X37500Y47500
X37500Y57500
X37500Y67500
X37500Y77500
X37500Y87500
X37500Y97500
X37500Y107500
X37500Y117500
X47500Y157500
X47500Y167500
X47500Y177500
X47500Y187500
X47500Y197500
X47500Y207500
X47500Y217500
X47500Y227500
X47500Y237500
X47500Y247500
X112500Y247500
X112500Y237500
X112500Y227500
X112500Y217500
X112500Y207500
X112500Y197500
X112500Y187500
X112500Y177500
X112500Y167500
X112500Y157500
X127500Y117500
X127500Y107500
X127500Y97500
X127500Y87500
X127500Y77500
X127500Y67500
X127500Y57500
X127500Y47500
X127500Y37500
X127500Y27500
X157500Y157500
X157500Y167500
X157500Y177500
X157500Y187500
X157500Y197500
X157500Y207500
X157500Y217500
X157500Y227500
X157500Y237500
X157500Y247500
T03
X112500Y277500
X82500Y277500
X62500Y277500
X32500Y277500
T04
X152500Y277500
X162500Y277500
X172500Y277500
X182500Y108000
X182500Y97000
X182500Y38000
X182500Y27000
M30
