G75*
%MOIN*%
%OFA0B0*%
%FSLAX26Y26*%
%IPPOS*%
%LPD*%
%AMOC8*
5,1,8,0,0,1.08239X$1,22.5*
%
%ADD10C,0.000000*%
%ADD11C,0.006000*%
%ADD12C,0.005000*%
%ADD13C,0.004000*%
%ADD14R,0.015000X0.020000*%
%ADD15C,0.008000*%
D10*
X00000000Y-00050000D02*
X00000000Y02999606D01*
X02187008Y02999606D01*
X02187008Y-00050000D01*
X00000000Y-00050000D01*
D11*
X01475000Y02650000D02*
X01450000Y02675000D01*
X01450000Y02725000D01*
X01475000Y02750000D01*
X01525000Y02750000D01*
X01550000Y02725000D01*
X01575000Y02750000D01*
X01625000Y02750000D01*
X01650000Y02725000D01*
X01675000Y02750000D01*
X01725000Y02750000D01*
X01750000Y02725000D01*
X01750000Y02675000D01*
X01725000Y02650000D01*
X01675000Y02650000D01*
X01650000Y02675000D01*
X01625000Y02650000D01*
X01575000Y02650000D01*
X01550000Y02675000D01*
X01525000Y02650000D01*
X01475000Y02650000D01*
X01050000Y02670000D02*
X01050000Y02730000D01*
X01049997Y02730242D01*
X01049988Y02730483D01*
X01049974Y02730724D01*
X01049953Y02730965D01*
X01049927Y02731205D01*
X01049895Y02731445D01*
X01049857Y02731684D01*
X01049814Y02731921D01*
X01049764Y02732158D01*
X01049709Y02732393D01*
X01049649Y02732627D01*
X01049582Y02732859D01*
X01049511Y02733090D01*
X01049433Y02733319D01*
X01049350Y02733546D01*
X01049262Y02733771D01*
X01049168Y02733994D01*
X01049069Y02734214D01*
X01048964Y02734432D01*
X01048855Y02734647D01*
X01048740Y02734860D01*
X01048620Y02735070D01*
X01048495Y02735276D01*
X01048365Y02735480D01*
X01048230Y02735681D01*
X01048090Y02735878D01*
X01047946Y02736072D01*
X01047797Y02736262D01*
X01047643Y02736448D01*
X01047485Y02736631D01*
X01047323Y02736810D01*
X01047156Y02736985D01*
X01046985Y02737156D01*
X01046810Y02737323D01*
X01046631Y02737485D01*
X01046448Y02737643D01*
X01046262Y02737797D01*
X01046072Y02737946D01*
X01045878Y02738090D01*
X01045681Y02738230D01*
X01045480Y02738365D01*
X01045276Y02738495D01*
X01045070Y02738620D01*
X01044860Y02738740D01*
X01044647Y02738855D01*
X01044432Y02738964D01*
X01044214Y02739069D01*
X01043994Y02739168D01*
X01043771Y02739262D01*
X01043546Y02739350D01*
X01043319Y02739433D01*
X01043090Y02739511D01*
X01042859Y02739582D01*
X01042627Y02739649D01*
X01042393Y02739709D01*
X01042158Y02739764D01*
X01041921Y02739814D01*
X01041684Y02739857D01*
X01041445Y02739895D01*
X01041205Y02739927D01*
X01040965Y02739953D01*
X01040724Y02739974D01*
X01040483Y02739988D01*
X01040242Y02739997D01*
X01040000Y02740000D01*
X01025000Y02740000D01*
X01020000Y02735000D01*
X00880000Y02735000D01*
X00875000Y02740000D01*
X00860000Y02740000D01*
X00859758Y02739997D01*
X00859517Y02739988D01*
X00859276Y02739974D01*
X00859035Y02739953D01*
X00858795Y02739927D01*
X00858555Y02739895D01*
X00858316Y02739857D01*
X00858079Y02739814D01*
X00857842Y02739764D01*
X00857607Y02739709D01*
X00857373Y02739649D01*
X00857141Y02739582D01*
X00856910Y02739511D01*
X00856681Y02739433D01*
X00856454Y02739350D01*
X00856229Y02739262D01*
X00856006Y02739168D01*
X00855786Y02739069D01*
X00855568Y02738964D01*
X00855353Y02738855D01*
X00855140Y02738740D01*
X00854930Y02738620D01*
X00854724Y02738495D01*
X00854520Y02738365D01*
X00854319Y02738230D01*
X00854122Y02738090D01*
X00853928Y02737946D01*
X00853738Y02737797D01*
X00853552Y02737643D01*
X00853369Y02737485D01*
X00853190Y02737323D01*
X00853015Y02737156D01*
X00852844Y02736985D01*
X00852677Y02736810D01*
X00852515Y02736631D01*
X00852357Y02736448D01*
X00852203Y02736262D01*
X00852054Y02736072D01*
X00851910Y02735878D01*
X00851770Y02735681D01*
X00851635Y02735480D01*
X00851505Y02735276D01*
X00851380Y02735070D01*
X00851260Y02734860D01*
X00851145Y02734647D01*
X00851036Y02734432D01*
X00850931Y02734214D01*
X00850832Y02733994D01*
X00850738Y02733771D01*
X00850650Y02733546D01*
X00850567Y02733319D01*
X00850489Y02733090D01*
X00850418Y02732859D01*
X00850351Y02732627D01*
X00850291Y02732393D01*
X00850236Y02732158D01*
X00850186Y02731921D01*
X00850143Y02731684D01*
X00850105Y02731445D01*
X00850073Y02731205D01*
X00850047Y02730965D01*
X00850026Y02730724D01*
X00850012Y02730483D01*
X00850003Y02730242D01*
X00850000Y02730000D01*
X00850000Y02670000D01*
X00850003Y02669758D01*
X00850012Y02669517D01*
X00850026Y02669276D01*
X00850047Y02669035D01*
X00850073Y02668795D01*
X00850105Y02668555D01*
X00850143Y02668316D01*
X00850186Y02668079D01*
X00850236Y02667842D01*
X00850291Y02667607D01*
X00850351Y02667373D01*
X00850418Y02667141D01*
X00850489Y02666910D01*
X00850567Y02666681D01*
X00850650Y02666454D01*
X00850738Y02666229D01*
X00850832Y02666006D01*
X00850931Y02665786D01*
X00851036Y02665568D01*
X00851145Y02665353D01*
X00851260Y02665140D01*
X00851380Y02664930D01*
X00851505Y02664724D01*
X00851635Y02664520D01*
X00851770Y02664319D01*
X00851910Y02664122D01*
X00852054Y02663928D01*
X00852203Y02663738D01*
X00852357Y02663552D01*
X00852515Y02663369D01*
X00852677Y02663190D01*
X00852844Y02663015D01*
X00853015Y02662844D01*
X00853190Y02662677D01*
X00853369Y02662515D01*
X00853552Y02662357D01*
X00853738Y02662203D01*
X00853928Y02662054D01*
X00854122Y02661910D01*
X00854319Y02661770D01*
X00854520Y02661635D01*
X00854724Y02661505D01*
X00854930Y02661380D01*
X00855140Y02661260D01*
X00855353Y02661145D01*
X00855568Y02661036D01*
X00855786Y02660931D01*
X00856006Y02660832D01*
X00856229Y02660738D01*
X00856454Y02660650D01*
X00856681Y02660567D01*
X00856910Y02660489D01*
X00857141Y02660418D01*
X00857373Y02660351D01*
X00857607Y02660291D01*
X00857842Y02660236D01*
X00858079Y02660186D01*
X00858316Y02660143D01*
X00858555Y02660105D01*
X00858795Y02660073D01*
X00859035Y02660047D01*
X00859276Y02660026D01*
X00859517Y02660012D01*
X00859758Y02660003D01*
X00860000Y02660000D01*
X00875000Y02660000D01*
X00880000Y02665000D01*
X01020000Y02665000D01*
X01025000Y02660000D01*
X01040000Y02660000D01*
X01040242Y02660003D01*
X01040483Y02660012D01*
X01040724Y02660026D01*
X01040965Y02660047D01*
X01041205Y02660073D01*
X01041445Y02660105D01*
X01041684Y02660143D01*
X01041921Y02660186D01*
X01042158Y02660236D01*
X01042393Y02660291D01*
X01042627Y02660351D01*
X01042859Y02660418D01*
X01043090Y02660489D01*
X01043319Y02660567D01*
X01043546Y02660650D01*
X01043771Y02660738D01*
X01043994Y02660832D01*
X01044214Y02660931D01*
X01044432Y02661036D01*
X01044647Y02661145D01*
X01044860Y02661260D01*
X01045070Y02661380D01*
X01045276Y02661505D01*
X01045480Y02661635D01*
X01045681Y02661770D01*
X01045878Y02661910D01*
X01046072Y02662054D01*
X01046262Y02662203D01*
X01046448Y02662357D01*
X01046631Y02662515D01*
X01046810Y02662677D01*
X01046985Y02662844D01*
X01047156Y02663015D01*
X01047323Y02663190D01*
X01047485Y02663369D01*
X01047643Y02663552D01*
X01047797Y02663738D01*
X01047946Y02663928D01*
X01048090Y02664122D01*
X01048230Y02664319D01*
X01048365Y02664520D01*
X01048495Y02664724D01*
X01048620Y02664930D01*
X01048740Y02665140D01*
X01048855Y02665353D01*
X01048964Y02665568D01*
X01049069Y02665786D01*
X01049168Y02666006D01*
X01049262Y02666229D01*
X01049350Y02666454D01*
X01049433Y02666681D01*
X01049511Y02666910D01*
X01049582Y02667141D01*
X01049649Y02667373D01*
X01049709Y02667607D01*
X01049764Y02667842D01*
X01049814Y02668079D01*
X01049857Y02668316D01*
X01049895Y02668555D01*
X01049927Y02668795D01*
X01049953Y02669035D01*
X01049974Y02669276D01*
X01049988Y02669517D01*
X01049997Y02669758D01*
X01050000Y02670000D01*
X00550000Y02670000D02*
X00550000Y02730000D01*
X00549997Y02730242D01*
X00549988Y02730483D01*
X00549974Y02730724D01*
X00549953Y02730965D01*
X00549927Y02731205D01*
X00549895Y02731445D01*
X00549857Y02731684D01*
X00549814Y02731921D01*
X00549764Y02732158D01*
X00549709Y02732393D01*
X00549649Y02732627D01*
X00549582Y02732859D01*
X00549511Y02733090D01*
X00549433Y02733319D01*
X00549350Y02733546D01*
X00549262Y02733771D01*
X00549168Y02733994D01*
X00549069Y02734214D01*
X00548964Y02734432D01*
X00548855Y02734647D01*
X00548740Y02734860D01*
X00548620Y02735070D01*
X00548495Y02735276D01*
X00548365Y02735480D01*
X00548230Y02735681D01*
X00548090Y02735878D01*
X00547946Y02736072D01*
X00547797Y02736262D01*
X00547643Y02736448D01*
X00547485Y02736631D01*
X00547323Y02736810D01*
X00547156Y02736985D01*
X00546985Y02737156D01*
X00546810Y02737323D01*
X00546631Y02737485D01*
X00546448Y02737643D01*
X00546262Y02737797D01*
X00546072Y02737946D01*
X00545878Y02738090D01*
X00545681Y02738230D01*
X00545480Y02738365D01*
X00545276Y02738495D01*
X00545070Y02738620D01*
X00544860Y02738740D01*
X00544647Y02738855D01*
X00544432Y02738964D01*
X00544214Y02739069D01*
X00543994Y02739168D01*
X00543771Y02739262D01*
X00543546Y02739350D01*
X00543319Y02739433D01*
X00543090Y02739511D01*
X00542859Y02739582D01*
X00542627Y02739649D01*
X00542393Y02739709D01*
X00542158Y02739764D01*
X00541921Y02739814D01*
X00541684Y02739857D01*
X00541445Y02739895D01*
X00541205Y02739927D01*
X00540965Y02739953D01*
X00540724Y02739974D01*
X00540483Y02739988D01*
X00540242Y02739997D01*
X00540000Y02740000D01*
X00525000Y02740000D01*
X00520000Y02735000D01*
X00380000Y02735000D01*
X00375000Y02740000D01*
X00360000Y02740000D01*
X00359758Y02739997D01*
X00359517Y02739988D01*
X00359276Y02739974D01*
X00359035Y02739953D01*
X00358795Y02739927D01*
X00358555Y02739895D01*
X00358316Y02739857D01*
X00358079Y02739814D01*
X00357842Y02739764D01*
X00357607Y02739709D01*
X00357373Y02739649D01*
X00357141Y02739582D01*
X00356910Y02739511D01*
X00356681Y02739433D01*
X00356454Y02739350D01*
X00356229Y02739262D01*
X00356006Y02739168D01*
X00355786Y02739069D01*
X00355568Y02738964D01*
X00355353Y02738855D01*
X00355140Y02738740D01*
X00354930Y02738620D01*
X00354724Y02738495D01*
X00354520Y02738365D01*
X00354319Y02738230D01*
X00354122Y02738090D01*
X00353928Y02737946D01*
X00353738Y02737797D01*
X00353552Y02737643D01*
X00353369Y02737485D01*
X00353190Y02737323D01*
X00353015Y02737156D01*
X00352844Y02736985D01*
X00352677Y02736810D01*
X00352515Y02736631D01*
X00352357Y02736448D01*
X00352203Y02736262D01*
X00352054Y02736072D01*
X00351910Y02735878D01*
X00351770Y02735681D01*
X00351635Y02735480D01*
X00351505Y02735276D01*
X00351380Y02735070D01*
X00351260Y02734860D01*
X00351145Y02734647D01*
X00351036Y02734432D01*
X00350931Y02734214D01*
X00350832Y02733994D01*
X00350738Y02733771D01*
X00350650Y02733546D01*
X00350567Y02733319D01*
X00350489Y02733090D01*
X00350418Y02732859D01*
X00350351Y02732627D01*
X00350291Y02732393D01*
X00350236Y02732158D01*
X00350186Y02731921D01*
X00350143Y02731684D01*
X00350105Y02731445D01*
X00350073Y02731205D01*
X00350047Y02730965D01*
X00350026Y02730724D01*
X00350012Y02730483D01*
X00350003Y02730242D01*
X00350000Y02730000D01*
X00350000Y02670000D01*
X00350003Y02669758D01*
X00350012Y02669517D01*
X00350026Y02669276D01*
X00350047Y02669035D01*
X00350073Y02668795D01*
X00350105Y02668555D01*
X00350143Y02668316D01*
X00350186Y02668079D01*
X00350236Y02667842D01*
X00350291Y02667607D01*
X00350351Y02667373D01*
X00350418Y02667141D01*
X00350489Y02666910D01*
X00350567Y02666681D01*
X00350650Y02666454D01*
X00350738Y02666229D01*
X00350832Y02666006D01*
X00350931Y02665786D01*
X00351036Y02665568D01*
X00351145Y02665353D01*
X00351260Y02665140D01*
X00351380Y02664930D01*
X00351505Y02664724D01*
X00351635Y02664520D01*
X00351770Y02664319D01*
X00351910Y02664122D01*
X00352054Y02663928D01*
X00352203Y02663738D01*
X00352357Y02663552D01*
X00352515Y02663369D01*
X00352677Y02663190D01*
X00352844Y02663015D01*
X00353015Y02662844D01*
X00353190Y02662677D01*
X00353369Y02662515D01*
X00353552Y02662357D01*
X00353738Y02662203D01*
X00353928Y02662054D01*
X00354122Y02661910D01*
X00354319Y02661770D01*
X00354520Y02661635D01*
X00354724Y02661505D01*
X00354930Y02661380D01*
X00355140Y02661260D01*
X00355353Y02661145D01*
X00355568Y02661036D01*
X00355786Y02660931D01*
X00356006Y02660832D01*
X00356229Y02660738D01*
X00356454Y02660650D01*
X00356681Y02660567D01*
X00356910Y02660489D01*
X00357141Y02660418D01*
X00357373Y02660351D01*
X00357607Y02660291D01*
X00357842Y02660236D01*
X00358079Y02660186D01*
X00358316Y02660143D01*
X00358555Y02660105D01*
X00358795Y02660073D01*
X00359035Y02660047D01*
X00359276Y02660026D01*
X00359517Y02660012D01*
X00359758Y02660003D01*
X00360000Y02660000D01*
X00375000Y02660000D01*
X00380000Y02665000D01*
X00520000Y02665000D01*
X00525000Y02660000D01*
X00540000Y02660000D01*
X00540242Y02660003D01*
X00540483Y02660012D01*
X00540724Y02660026D01*
X00540965Y02660047D01*
X00541205Y02660073D01*
X00541445Y02660105D01*
X00541684Y02660143D01*
X00541921Y02660186D01*
X00542158Y02660236D01*
X00542393Y02660291D01*
X00542627Y02660351D01*
X00542859Y02660418D01*
X00543090Y02660489D01*
X00543319Y02660567D01*
X00543546Y02660650D01*
X00543771Y02660738D01*
X00543994Y02660832D01*
X00544214Y02660931D01*
X00544432Y02661036D01*
X00544647Y02661145D01*
X00544860Y02661260D01*
X00545070Y02661380D01*
X00545276Y02661505D01*
X00545480Y02661635D01*
X00545681Y02661770D01*
X00545878Y02661910D01*
X00546072Y02662054D01*
X00546262Y02662203D01*
X00546448Y02662357D01*
X00546631Y02662515D01*
X00546810Y02662677D01*
X00546985Y02662844D01*
X00547156Y02663015D01*
X00547323Y02663190D01*
X00547485Y02663369D01*
X00547643Y02663552D01*
X00547797Y02663738D01*
X00547946Y02663928D01*
X00548090Y02664122D01*
X00548230Y02664319D01*
X00548365Y02664520D01*
X00548495Y02664724D01*
X00548620Y02664930D01*
X00548740Y02665140D01*
X00548855Y02665353D01*
X00548964Y02665568D01*
X00549069Y02665786D01*
X00549168Y02666006D01*
X00549262Y02666229D01*
X00549350Y02666454D01*
X00549433Y02666681D01*
X00549511Y02666910D01*
X00549582Y02667141D01*
X00549649Y02667373D01*
X00549709Y02667607D01*
X00549764Y02667842D01*
X00549814Y02668079D01*
X00549857Y02668316D01*
X00549895Y02668555D01*
X00549927Y02668795D01*
X00549953Y02669035D01*
X00549974Y02669276D01*
X00549988Y02669517D01*
X00549997Y02669758D01*
X00550000Y02670000D01*
D12*
X00528740Y02471654D02*
X00450000Y02481496D01*
X00371260Y02471654D01*
X00371260Y01428346D01*
X00450000Y01418504D01*
X00528740Y01428346D01*
X00528740Y02471654D01*
X01021260Y02471654D02*
X01100000Y02481496D01*
X01178740Y02471654D01*
X01178740Y01428346D01*
X01100000Y01418504D01*
X01021260Y01428346D01*
X01021260Y02471654D01*
X01450000Y02500000D02*
X02100000Y02500000D01*
X02100000Y01400000D01*
X01450000Y01400000D01*
X01450000Y02500000D01*
X01522303Y02587500D02*
X01522303Y02632538D01*
X01544822Y02632538D01*
X01552329Y02625032D01*
X01552329Y02610019D01*
X01544822Y02602513D01*
X01522303Y02602513D01*
X01568343Y02595006D02*
X01575849Y02587500D01*
X01590862Y02587500D01*
X01598368Y02595006D01*
X01598368Y02625032D01*
X01590862Y02632538D01*
X01575849Y02632538D01*
X01568343Y02625032D01*
X01568343Y02595006D01*
X01614382Y02587500D02*
X01629395Y02602513D01*
X01644407Y02587500D01*
X01644407Y02632538D01*
X01660421Y02632538D02*
X01660421Y02587500D01*
X01690447Y02587500D01*
X01706460Y02587500D02*
X01706460Y02632538D01*
X01728979Y02632538D01*
X01736486Y02625032D01*
X01736486Y02610019D01*
X01728979Y02602513D01*
X01706460Y02602513D01*
X01721473Y02602513D02*
X01736486Y02587500D01*
X01690447Y02632538D02*
X01660421Y02632538D01*
X01660421Y02610019D02*
X01675434Y02610019D01*
X01614382Y02632538D02*
X01614382Y02587500D01*
X01756461Y02677500D02*
X01786486Y02677500D01*
X01771474Y02677500D02*
X01771474Y02722538D01*
X01756461Y02707526D01*
X01119685Y01446063D02*
X01080315Y01446063D01*
X01080315Y01422441D01*
X01119685Y01422441D02*
X01119685Y01446063D01*
X01350000Y01250000D02*
X00250000Y01250000D01*
X00250000Y00100000D01*
X01350000Y00100000D01*
X01350000Y01250000D01*
X00469685Y01422441D02*
X00469685Y01446063D01*
X00430315Y01446063D01*
X00430315Y01422441D01*
D13*
X00332693Y01198039D02*
X00302000Y01198039D01*
X00302000Y01152000D01*
X00332693Y01152000D01*
X00348039Y01152000D02*
X00371059Y01152000D01*
X00378732Y01159673D01*
X00371059Y01167346D01*
X00355712Y01167346D01*
X00348039Y01175020D01*
X00355712Y01182693D01*
X00378732Y01182693D01*
X00394078Y01182693D02*
X00394078Y01136654D01*
X00394078Y01152000D02*
X00417098Y01152000D01*
X00424771Y01159673D01*
X00424771Y01175020D01*
X00417098Y01182693D01*
X00394078Y01182693D01*
X00440118Y01182693D02*
X00440118Y01152000D01*
X00440118Y01167346D02*
X00455464Y01182693D01*
X00463137Y01182693D01*
X00524523Y01175020D02*
X00524523Y01159673D01*
X00532196Y01152000D01*
X00555216Y01152000D01*
X00555216Y01198039D01*
X00555216Y01182693D02*
X00532196Y01182693D01*
X00524523Y01175020D01*
X00570562Y01175020D02*
X00570562Y01159673D01*
X00578235Y01152000D01*
X00593582Y01152000D01*
X00601255Y01167346D02*
X00570562Y01167346D01*
X00570562Y01175020D02*
X00578235Y01182693D01*
X00593582Y01182693D01*
X00601255Y01175020D01*
X00601255Y01167346D01*
X00616602Y01182693D02*
X00631948Y01152000D01*
X00647294Y01182693D01*
X00662641Y01175020D02*
X00662641Y01159673D01*
X00670314Y01152000D01*
X00685660Y01152000D01*
X00693334Y01167346D02*
X00662641Y01167346D01*
X00662641Y01175020D02*
X00670314Y01182693D01*
X00685660Y01182693D01*
X00693334Y01175020D01*
X00693334Y01167346D01*
X00708680Y01152000D02*
X00724026Y01152000D01*
X00716353Y01152000D02*
X00716353Y01198039D01*
X00708680Y01198039D01*
X00739373Y01175020D02*
X00739373Y01159673D01*
X00747046Y01152000D01*
X00762392Y01152000D01*
X00770066Y01159673D01*
X00770066Y01175020D01*
X00762392Y01182693D01*
X00747046Y01182693D01*
X00739373Y01175020D01*
X00785412Y01182693D02*
X00785412Y01136654D01*
X00785412Y01152000D02*
X00808432Y01152000D01*
X00816105Y01159673D01*
X00816105Y01175020D01*
X00808432Y01182693D01*
X00785412Y01182693D01*
X00831451Y01175020D02*
X00831451Y01159673D01*
X00839124Y01152000D01*
X00854471Y01152000D01*
X00862144Y01167346D02*
X00831451Y01167346D01*
X00831451Y01175020D02*
X00839124Y01182693D01*
X00854471Y01182693D01*
X00862144Y01175020D01*
X00862144Y01167346D01*
X00877491Y01167346D02*
X00892837Y01182693D01*
X00900510Y01182693D01*
X00877491Y01182693D02*
X00877491Y01152000D01*
X00317346Y01175020D02*
X00302000Y01175020D01*
X00480179Y02612000D02*
X00480179Y02647030D01*
X00497694Y02647030D01*
X00503532Y02641192D01*
X00503532Y02629515D01*
X00497694Y02623677D01*
X00480179Y02623677D01*
X00491855Y02623677D02*
X00503532Y02612000D01*
X00516089Y02612000D02*
X00539443Y02635353D01*
X00539443Y02641192D01*
X00533604Y02647030D01*
X00521928Y02647030D01*
X00516089Y02641192D01*
X00516089Y02612000D02*
X00539443Y02612000D01*
X00980179Y02612000D02*
X00980179Y02647030D01*
X00997694Y02647030D01*
X01003532Y02641192D01*
X01003532Y02629515D01*
X00997694Y02623677D01*
X00980179Y02623677D01*
X00991855Y02623677D02*
X01003532Y02612000D01*
X01016089Y02612000D02*
X01039443Y02612000D01*
X01027766Y02612000D02*
X01027766Y02647030D01*
X01016089Y02635353D01*
X01679725Y01948039D02*
X01679725Y01902000D01*
X01695071Y01932693D02*
X01710417Y01948039D01*
X01710417Y01902000D01*
X01725764Y01902000D02*
X01725764Y01948039D01*
X01748783Y01948039D01*
X01756457Y01940366D01*
X01756457Y01925020D01*
X01748783Y01917346D01*
X01725764Y01917346D01*
X01695071Y01932693D02*
X01679725Y01948039D01*
X01771803Y01948039D02*
X01771803Y01909673D01*
X01779476Y01902000D01*
X01794823Y01902000D01*
X01802496Y01909673D01*
X01802496Y01948039D01*
X01817842Y01925020D02*
X01840862Y01925020D01*
X01848535Y01917346D01*
X01848535Y01909673D01*
X01840862Y01902000D01*
X01825516Y01902000D01*
X01817842Y01909673D01*
X01817842Y01925020D01*
X01833189Y01940366D01*
X01848535Y01948039D01*
X01863882Y01940366D02*
X01871555Y01948039D01*
X01886901Y01948039D01*
X01894574Y01940366D01*
X01863882Y01909673D01*
X01871555Y01902000D01*
X01886901Y01902000D01*
X01894574Y01909673D01*
X01894574Y01940366D01*
X01909921Y01948039D02*
X01909921Y01925020D01*
X01925267Y01932693D01*
X01932940Y01932693D01*
X01940614Y01925020D01*
X01940614Y01909673D01*
X01932940Y01902000D01*
X01917594Y01902000D01*
X01909921Y01909673D01*
X01909921Y01948039D02*
X01940614Y01948039D01*
X01955960Y01940366D02*
X01955960Y01909673D01*
X01986653Y01940366D01*
X01986653Y01909673D01*
X01978980Y01902000D01*
X01963633Y01902000D01*
X01955960Y01909673D01*
X01955960Y01940366D02*
X01963633Y01948039D01*
X01978980Y01948039D01*
X01986653Y01940366D01*
X01863882Y01940366D02*
X01863882Y01909673D01*
X01871961Y01036653D02*
X01871961Y01005961D01*
X01894980Y01005961D01*
X01887307Y01021307D01*
X01887307Y01028980D01*
X01894980Y01036653D01*
X01910327Y01036653D01*
X01918000Y01028980D01*
X01918000Y01013634D01*
X01910327Y01005961D01*
X01910327Y00990614D02*
X01902654Y00990614D01*
X01894980Y00982941D01*
X01894980Y00967594D01*
X01887307Y00959921D01*
X01879634Y00959921D01*
X01871961Y00967594D01*
X01871961Y00982941D01*
X01879634Y00990614D01*
X01864288Y00975268D02*
X01925673Y00975268D01*
X01918000Y00967594D02*
X01918000Y00982941D01*
X01910327Y00990614D01*
X01918000Y00967594D02*
X01910327Y00959921D01*
X01910327Y00944575D02*
X01871961Y00944575D01*
X01871961Y00913882D02*
X01910327Y00913882D01*
X01918000Y00921555D01*
X01918000Y00936902D01*
X01910327Y00944575D01*
X01910327Y00336653D02*
X01902654Y00336653D01*
X01894980Y00328980D01*
X01894980Y00305961D01*
X01910327Y00305961D01*
X01918000Y00313634D01*
X01918000Y00328980D01*
X01910327Y00336653D01*
X01879634Y00321307D02*
X01894980Y00305961D01*
X01902654Y00290614D02*
X01894980Y00282941D01*
X01894980Y00267594D01*
X01887307Y00259921D01*
X01879634Y00259921D01*
X01871961Y00267594D01*
X01871961Y00282941D01*
X01879634Y00290614D01*
X01864288Y00275268D02*
X01925673Y00275268D01*
X01918000Y00282941D02*
X01910327Y00290614D01*
X01902654Y00290614D01*
X01918000Y00282941D02*
X01918000Y00267594D01*
X01910327Y00259921D01*
X01910327Y00244575D02*
X01871961Y00244575D01*
X01871961Y00213882D02*
X01910327Y00213882D01*
X01918000Y00221555D01*
X01918000Y00236902D01*
X01910327Y00244575D01*
X01879634Y00321307D02*
X01871961Y00336653D01*
D14*
X01057500Y02700000D03*
X00842500Y02700000D03*
X00557500Y02700000D03*
X00342500Y02700000D03*
D15*
X01761000Y01050000D02*
X01750000Y01039000D01*
X01761000Y01050000D02*
X01800000Y01050000D01*
X01839000Y01050000D01*
X01850000Y01039000D01*
X01800000Y01040000D02*
X01800000Y01050000D01*
X01800000Y00965000D02*
X01800000Y00935000D01*
X01800000Y00860000D02*
X01800000Y00850000D01*
X01839000Y00850000D01*
X01850000Y00861000D01*
X01800000Y00850000D02*
X01761000Y00850000D01*
X01750000Y00861000D01*
X01761000Y00350000D02*
X01750000Y00339000D01*
X01761000Y00350000D02*
X01800000Y00350000D01*
X01839000Y00350000D01*
X01850000Y00339000D01*
X01800000Y00340000D02*
X01800000Y00350000D01*
X01800000Y00265000D02*
X01800000Y00235000D01*
X01800000Y00160000D02*
X01800000Y00150000D01*
X01839000Y00150000D01*
X01850000Y00161000D01*
X01800000Y00150000D02*
X01761000Y00150000D01*
X01750000Y00161000D01*
M02*
